<svg xmlns="http://www.w3.org/2000/svg" version="1.1" xmlns:xlink="http://www.w3.org/1999/xlink" xmlns:svgjs="http://svgjs.dev/svgjs" width="128" height="128" viewBox="0 0 128 128"><g transform="matrix(0.8046875,0,0,0.8046875,12.737796356366538,12.760752631578946)"><svg viewBox="0 0 95 95" data-background-color="#ffffff" preserveAspectRatio="xMidYMid meet" height="128" width="128" xmlns="http://www.w3.org/2000/svg" xmlns:xlink="http://www.w3.org/1999/xlink"><g id="tight-bounds" transform="matrix(1,0,0,1,-0.21932673645457612,-0.24049999999999727)"><svg viewBox="0 0 95.4386534729091 95.481" height="95.481" width="95.4386534729091"><g><svg viewBox="0 0 95.4386534729091 95.481" height="95.481" width="95.4386534729091"><g><svg viewBox="0 0 95.4386534729091 95.481" height="95.481" width="95.4386534729091"><g id="textblocktransform"><svg viewBox="0 0 95.4386534729091 95.481" height="95.481" width="95.4386534729091" id="textblock"><g><svg viewBox="0 0 95.4386534729091 95.481" height="95.481" width="95.4386534729091"><g><svg viewBox="0 0 95.4386534729091 95.481" height="95.481" width="95.4386534729091"><g><svg xmlns="http://www.w3.org/2000/svg" xmlns:xlink="http://www.w3.org/1999/xlink" version="1.1" x="0" y="0" viewBox="14.501999999999999 14.488 70.99324999999999 71.02474999999998" enable-background="new 0 0 100 100" xml:space="preserve" height="95.481" width="95.4386534729091" class="icon-icon-0" data-fill-palette-color="accent" id="icon-0"><g fill="#2ecc40" data-fill-palette-color="accent"><path fill="#2ecc40" d="M46 14.488L20.875 14.6c-1.733 0-3.298 0.699-4.416 1.845-1.146 1.119-1.845 2.684-1.845 4.418l-0.112 25.136c0 0.224 0.084 0.419 0.251 0.559l37.086 37.13c2.432 2.433 6.372 2.433 8.804 0l23.029-23.039c2.431-2.433 2.431-6.375 0-8.807L46.559 14.739C46.419 14.572 46.224 14.488 46 14.488L46 14.488zM45.693 16.054L82.556 52.96c1.845 1.817 1.845 4.725 0 6.57L59.526 82.569c-1.816 1.845-4.723 1.845-6.54 0L16.068 45.663l0.112-24.8c0-1.314 0.531-2.46 1.37-3.328 0.866-0.838 2.04-1.37 3.354-1.37L45.693 16.054 45.693 16.054zM27.555 22.316c-1.342 0-2.683 0.503-3.717 1.51-2.012 2.041-2.012 5.34 0 7.381 2.041 2.041 5.338 2.041 7.378 0s2.04-5.34 0-7.381C30.209 22.82 28.868 22.316 27.555 22.316L27.555 22.316zM27.555 23.882c0.922 0 1.844 0.335 2.543 1.063 1.425 1.426 1.425 3.69 0 5.117-1.425 1.426-3.717 1.426-5.142 0-1.425-1.426-1.425-3.691 0-5.117C25.654 24.218 26.604 23.882 27.555 23.882L27.555 23.882zM49.857 34.563c-0.391 0.056-0.699 0.391-0.699 0.783v1.342c-4.248 0.392-8.217 2.908-8.217 7.549 0 1.929 1.062 3.607 2.711 4.725 1.481 1.007 3.382 1.622 5.506 1.761v11.1c-3.438-0.14-6.651-1.93-6.651-5.229 0-0.392-0.363-0.783-0.783-0.783-0.419 0-0.811 0.392-0.783 0.783 0 4.334 3.969 6.599 8.217 6.766v1.286c0 0.42 0.363 0.812 0.783 0.812 0.419 0 0.811-0.392 0.811-0.812v-1.342c4.275-0.363 8.356-2.852 8.356-7.549 0-1.93-1.09-3.606-2.739-4.726-1.481-1.006-3.438-1.621-5.617-1.733v-11.1c3.493 0.112 6.763 1.901 6.763 5.228 0 0.419 0.363 0.783 0.782 0.783s0.811-0.364 0.811-0.783c0-4.39-4.081-6.654-8.356-6.794v-1.286C50.751 34.898 50.304 34.507 49.857 34.563L49.857 34.563zM49.158 38.253V49.13c-1.844-0.112-3.465-0.671-4.611-1.454-1.313-0.895-2.04-2.097-2.04-3.439C42.507 40.574 45.721 38.617 49.158 38.253L49.158 38.253zM50.751 50.891c1.9 0.112 3.548 0.643 4.722 1.454 1.313 0.895 2.041 2.069 2.041 3.411 0 3.719-3.271 5.704-6.763 6.039V50.891L50.751 50.891z" data-fill-palette-color="accent"></path></g></svg></g></svg></g></svg></g></svg></g></svg></g></svg></g><defs></defs></svg><rect width="95.4386534729091" height="95.481" fill="none" stroke="none" visibility="hidden"></rect></g></svg></g></svg>